<svg xmlns="http://www.w3.org/2000/svg" viewBox="0 0 32 32">
    <title>american football</title>
    <g id="american_football" data-name="american football">
        <rect width="32" height="32" style="fill:none" />
        <path d="M1,16a10.7435,10.7435,0,0,0,3.8707,7.2108,30.2939,30.2939,0,0,1,0-14.4216A10.7435,10.7435,0,0,0,1,16Z"
            style="fill:#364f6b" />
        <path
            d="M27.1294,8.7892A29.8264,29.8264,0,0,1,28,16a29.8264,29.8264,0,0,1-.8706,7.2108A10.7433,10.7433,0,0,0,31,16,10.7433,10.7433,0,0,0,27.1294,8.7892Z"
            style="fill:#364f6b" />
        <path
            d="M16,5A17.7385,17.7385,0,0,0,7.5117,6.9536,26.4885,26.4885,0,0,0,6,16a26.4885,26.4885,0,0,0,1.5117,9.0464A17.7385,17.7385,0,0,0,16,27a17.7385,17.7385,0,0,0,8.4883-1.9536A26.4885,26.4885,0,0,0,26,16a26.4885,26.4885,0,0,0-1.5117-9.0464A17.7385,17.7385,0,0,0,16,5Zm4,12a1,1,0,0,1-2,0H17a1,1,0,0,1-2,0H14a1,1,0,0,1-2,0,1,1,0,0,1,0-2,1,1,0,0,1,2,0h1a1,1,0,0,1,2,0h1a1,1,0,0,1,2,0,1,1,0,0,1,0,2Z"
            style="fill:#364f6b" />
    </g>
</svg>