<svg xmlns="http://www.w3.org/2000/svg" viewBox="0 0 32 32"><path fill="none" d="M0 0h32v32H0z"/><path d="M11.94 15H15V1.05A14.966 14.966 0 004.548 6.335a9.905 9.905 0 013.294 1.55A10.032 10.032 0 0111.94 15zM6.673 9.506a7.904 7.904 0 00-3.408-1.394A14.876 14.876 0 001.051 15h8.883a8.033 8.033 0 00-3.261-5.494zM20.053 15a10.03 10.03 0 013.205-6.385 9.904 9.904 0 014.2-2.274A14.965 14.965 0 0017 1.05V15zM22.07 15h8.88a14.877 14.877 0 00-2.215-6.887 7.904 7.904 0 00-4.129 1.978A8.022 8.022 0 0022.07 15zM9.932 17H1.051a14.876 14.876 0 002.207 6.875 7.877 7.877 0 002.617-.874A8.012 8.012 0 009.932 17z" fill="currentColor"/><path d="M11.932 17a9.958 9.958 0 01-7.381 8.67A14.965 14.965 0 0015 30.95V17zM20.06 17H17v13.95a14.967 14.967 0 0010.473-5.306 9.886 9.886 0 01-3.36-1.56A10.038 10.038 0 0120.06 17zM22.066 17a8.04 8.04 0 003.225 5.468 7.912 7.912 0 003.444 1.419A14.877 14.877 0 0030.95 17z" fill="currentColor"/></svg>