<svg fill="none" xmlns="http://www.w3.org/2000/svg" viewBox="0 0 26 50"><path d="M4.132 10.774c-.538.319-2.17.645-1.956-.367.657-.209 1.467-.822 2.193-.42.628.428.609-.8.783-1.088.804-1.16-.55-.342-1.11-.417-.374-.622.735-1.028 1.176-1.235.276-.1-.062-.516.148-.71.368-.158.648.157.723.482.145.26 1.135.305 1.139-.147 1.579-2.151 4.905 1.434 6.922.131.8-.26.232 1.075-.31 1.056-.525.47-1.6-.068-1.95.386 2.013 2.913-3.286 5.928-3.54 9.134-.301 1.983 1.019 1.77 1.247.062.605-5.472 6.445-7.366 8.838-11.851.792-1.21 1.47-2.455.864-3.91 1.666-.733 1.637 3.61.624 4.503-2.168 3.504-6.534 5.411-8.328 9.02-.902 1.327-.591 3.407-2.095 4.383 2.097-.17 1.784-2.83 2.776-4.157 3.248-2.864 7.361-4.874 9.632-8.815a13.27 13.27 0 0 0 2.56-6.459c0-.363 0-.363.362-.352.408.1.387.853.534 1.189.108 2.296-.805 4.49-2.32 6.194-2.197 2.884-5.206 4.99-8.092 7.099-.257.272 1.38-.46 1.662-.428.71.544-.58 1.4-1.014 1.75-1.74.896.015.212.924.158.931.452-1.247 1.49-1.751 1.681-2.105.737 2.037-.35 1.613.661-.58.773-1.519.86-2.259 1.245 1.13.044 2.826-.089.839 1.017-.193.193-1.308.253-1.005.552 1.216.773 2.762 1.003 4.202 1.048.643.193-.27.796-.563.912-1.127.773-2.739.499-3.93-.039-.784-.4-1.418-1.032-2.048-1.623.215 1.305 1.668 2.172 2.569 3.069 1.85 1.233 3.515 3.479 2.694 5.67-.655-.102-.423-1.368-.872-1.853-1.503-2.453-4.337-3.827-5.382-6.571.07 2.278 2.387 3.879 3.865 5.427-.35 1.687.624 3.318 1.69 4.625.202.535-.83.193-1.121.28-.868-.615-.273 1.956-.167 2.425 1.38 6.185 2.513 1.757 3.823 4.331.118 1.41-1.326.225-2.021.155-1.56 0-3.41-.34-4.743.66-.694.32-.603-.422-.445-.857-.386-.3-1.685.95-1.1-.325 3.012-2.477 4.898 1.566 3.172-2.742-.32-.92-.425-1.885-.701-2.808-.035-.833.023-1.74-.913-.953-.516.096-.336-.387-.234-.69-.085-.773.16-1.892-.4-2.464-7.958-.733-13.721-7.607-6.478-13.981 1.098-1.171 6.987-4.998 2.67-5.493-.612.257-1.528-.06-1.918.443-.029.238-.497.624-.159.79a1.567 1.567 0 0 0 1.332.368c.402.58-.785 1.124-1.223.949-.412.015-.483-.67-.872-.656-.42.317-.516 1.06-1.005 1.407-.272.194.193.458-.02.673-1.934-.188-.571-1.983.469-2.524ZM9.37 25.3c-3.558-2.014-4.126-6.007-2.513-9.436.138-.695-1.11.787-1.221 1.017-.508.675-.58 1.506-.773 2.261-.416 2.859 1.558 5.798 4.507 6.158ZM6.534 8.05c-.356-.013-.464.271-.464.58-.172.654 2.081-.38.464-.58Zm1.998-.192c.097-.122 1.069-.041.692-.348-.263-.099-1.09-.358-1.12.033-.005.233.082.313.428.313v.002Z" fill="currentColor"/><path d="M7.465 31.227c-1.34.773-1.547.485-.967-.88.33-.515-.123-2.09.609-2.071 3.975 1.221 1.993-.128 3.403 3.635-.143.387-.728.064-.981-.066-.474.043-.81 2.074-1.452 2.586-.806 1.177-1.74 2.279-2.476 3.497.095.208.752-.055 1.058.04.73.09 1.739.116 1.47 1.16-.154.697-.568.332-.894.079-1.326-.644-2.836-.16-4.266-.25-.761-.156-1.03.774-1.623.735-.634-.213.535-1.378-.292-1.16-1.465 1.071-1.324-.58-.064-.668 1.208-1.096 1.877.15 3.04-.15 1.883-1.54 2.488-4.301 3.435-6.487Zm13.513-1.165c.056 1.613-.452 3.546-1.79 4.493.289-1.88.362-4.026-.647-5.867 0-1.603-6.123-5.338-4.528-5.126 3.202.951 7.263 2.497 6.965 6.5Zm-3.704-15.551c-.094-1.265 1.16-1.44 1.952-2.181 2.103-1.53 3.949-3.4 5.789-5.24 1.447-.355-1.871 3.769-2.405 4.107-.643.588-5.04 4.397-5.336 3.315ZM21.652 4.8c-.05 3.72-4.947 7.01-7.817 8.504 1.32-2.513 5.156-3.808 6.277-6.79.597-.89.67-2.08 1.032-2.947.618-.033.487.881.508 1.233Z" fill="currentColor"/><path d="M17.491 16.862c-.624.054-.44-1.602.182-1.577a28.294 28.294 0 0 0 5.622-4.096c1.132-.25-.358 1.672-.625 1.997-1.366 1.606-3.314 2.833-5.179 3.676Zm-.632 2.131c-.55.027-.068-.746.058-.993.092-.193-.114-.58.241-.55 1.703-.668 3.272-1.827 4.88-2.6-.029 1.948-3.397 3.478-5.18 4.143Zm-.774 1.912c-1.02.102-.042-.55-.042-.966.141-.613 1.136-.542 1.612-.793 1.032-.329 2.008-.895 2.951-1.426 1.805.317-3.804 3.444-4.52 3.185ZM25.917 4.13c.752 1.008-3.892 6.02-3.732 4.421a25.88 25.88 0 0 0 2.9-4.226c.31-.714.883-1.776.832-.196Zm-8.159 17.677c-2.655-.125.63-1.064 1.392-1.52.83.206-.735 1.853-1.392 1.52ZM.753 41.707h1.374v4.817h2.977v1.12H.754v-5.937Zm5.782 6.005a.795.795 0 0 1-.585-.238.806.806 0 0 1-.237-.594.76.76 0 0 1 .237-.585.81.81 0 0 1 .585-.229.81.81 0 0 1 .585.23.76.76 0 0 1 .238.584c0 .238-.08.436-.238.594a.795.795 0 0 1-.585.238Zm3.187-4.902v1.569h2.747v1.102H9.722v2.163H8.348v-5.937h4.486v1.103H9.722Zm4.366 4.901a.795.795 0 0 1-.585-.237.805.805 0 0 1-.237-.594.76.76 0 0 1 .237-.585.81.81 0 0 1 .585-.229.81.81 0 0 1 .585.23.76.76 0 0 1 .238.584c0 .238-.08.436-.238.594a.795.795 0 0 1-.585.238Zm4.488.034c-.605 0-1.153-.13-1.645-.39a3.022 3.022 0 0 1-1.154-1.094 3.06 3.06 0 0 1-.415-1.586c0-.587.138-1.113.415-1.577a2.94 2.94 0 0 1 1.154-1.094 3.423 3.423 0 0 1 1.653-.398c.515 0 .979.09 1.391.271.418.18.77.441 1.052.78l-.882.814c-.402-.463-.9-.695-1.493-.695-.367 0-.695.082-.983.246a1.718 1.718 0 0 0-.679.67 2.01 2.01 0 0 0-.237.983c0 .368.079.696.237.984.164.289.39.515.679.679.288.158.616.237.983.237.594 0 1.091-.235 1.493-.704l.882.814a2.748 2.748 0 0 1-1.052.79 3.49 3.49 0 0 1-1.4.27Z" fill="currentColor"/></svg>