<svg width="1503" height="1504" viewBox="0 0 1503 1504" fill="none" xmlns="http://www.w3.org/2000/svg">
<ellipse cx="751.5" cy="752" rx="751.5" ry="752" fill="#8247E5"/>
<path d="M998.627 586.979C980.991 576.902 958.316 576.902 938.161 586.979L797.075 670.119L701.337 723.027L562.77 806.167C545.134 816.245 522.46 816.245 502.304 806.167L393.97 740.663C376.334 730.585 363.737 710.43 363.737 687.755V561.785C363.737 541.63 373.815 521.475 393.97 508.878L502.304 445.893C519.94 435.815 542.615 435.815 562.77 445.893L671.104 511.397C688.74 521.475 701.337 541.63 701.337 564.304V647.445L797.075 592.018V506.358C797.075 486.203 786.997 466.048 766.842 453.451L565.29 335.039C547.654 324.961 524.979 324.961 504.824 335.039L298.233 455.97C278.078 466.048 268 486.203 268 506.358V743.182C268 763.337 278.078 783.493 298.233 796.09L502.304 914.502C519.94 924.579 542.615 924.579 562.77 914.502L701.337 833.881L797.075 778.454L935.642 697.833C953.278 687.755 975.952 687.755 996.107 697.833L1104.44 760.818C1122.08 770.896 1134.67 791.051 1134.67 813.725V939.696C1134.67 959.851 1124.6 980.006 1104.44 992.603L998.627 1055.59C980.991 1065.67 958.316 1065.67 938.161 1055.59L829.827 992.603C812.191 982.525 799.594 962.37 799.594 939.696V859.075L703.857 914.502V997.642C703.857 1017.8 713.934 1037.95 734.09 1050.55L938.161 1168.96C955.797 1179.04 978.472 1179.04 998.627 1168.96L1202.7 1050.55C1220.33 1040.47 1232.93 1020.32 1232.93 997.642V758.299C1232.93 738.143 1222.85 717.988 1202.7 705.391L998.627 586.979Z" fill="white"/>
</svg>
