<svg xmlns="http://www.w3.org/2000/svg" viewBox="0 0 32 32"><g data-name="tennis ball"><path fill="none" d="M0 0h32v32H0z"/><path d="M8.29 20.645a9.004 9.004 0 1115.42 0 3.016 3.016 0 00-.193 2.763l1.873 4.272a15 15 0 10-18.78 0l1.873-4.272a3.014 3.014 0 00-.194-2.763z" fill="currentColor"/><path d="M21.685 24.211a5.019 5.019 0 01.313-4.6 7.037 7.037 0 00-2.146-9.463 6.946 6.946 0 00-7.704 0 7.038 7.038 0 00-2.146 9.463 5.018 5.018 0 01.313 4.6l-2.03 4.629a14.856 14.856 0 0015.43 0z" fill="currentColor"/></g></svg>