<svg width="168" height="76" viewBox="0 0 168 76" fill="none" xmlns="http://www.w3.org/2000/svg">
  <path d="M80.9607 8.27663H93.3171V12.5228H85.6315V20.8029H91.6611V25.0491H85.6315V38H80.9607V8.27663ZM102.308 38.4246C100.015 38.4246 98.2604 37.7735 97.0431 36.4714C95.8259 35.1692 95.2173 33.3292 95.2173 30.9513V15.3253C95.2173 12.9474 95.8259 11.1074 97.0431 9.80526C98.2604 8.5031 100.015 7.85202 102.308 7.85202C104.601 7.85202 106.356 8.5031 107.574 9.80526C108.791 11.1074 109.4 12.9474 109.4 15.3253V30.9513C109.4 33.3292 108.791 35.1692 107.574 36.4714C106.356 37.7735 104.601 38.4246 102.308 38.4246ZM102.308 34.1784C103.922 34.1784 104.729 33.2018 104.729 31.2485V15.0281C104.729 13.0748 103.922 12.0982 102.308 12.0982C100.695 12.0982 99.8881 13.0748 99.8881 15.0281V31.2485C99.8881 33.2018 100.695 34.1784 102.308 34.1784ZM119.31 38.4246C117.017 38.4246 115.262 37.7735 114.044 36.4714C112.827 35.1692 112.219 33.3292 112.219 30.9513V15.3253C112.219 12.9474 112.827 11.1074 114.044 9.80526C115.262 8.5031 117.017 7.85202 119.31 7.85202C121.603 7.85202 123.358 8.5031 124.575 9.80526C125.792 11.1074 126.401 12.9474 126.401 15.3253V30.9513C126.401 33.3292 125.792 35.1692 124.575 36.4714C123.358 37.7735 121.603 38.4246 119.31 38.4246ZM119.31 34.1784C120.923 34.1784 121.73 33.2018 121.73 31.2485V15.0281C121.73 13.0748 120.923 12.0982 119.31 12.0982C117.696 12.0982 116.889 13.0748 116.889 15.0281V31.2485C116.889 33.2018 117.696 34.1784 119.31 34.1784ZM133.046 12.5228H128.162V8.27663H142.599V12.5228H137.716V38H133.046V12.5228ZM149.315 25.3463L143.668 8.27663H148.636L151.821 19.1894H151.906L155.09 8.27663H159.634L153.986 25.3463V38H149.315V25.3463ZM86.605 71.3693C84.611 71.3693 83.0847 70.8031 82.0261 69.6707C80.9676 68.5382 80.4383 66.9381 80.4383 64.8702V51.2814C80.4383 49.2135 80.9676 47.6133 82.0261 46.4809C83.0847 45.3485 84.611 44.7823 86.605 44.7823C88.599 44.7823 90.1253 45.3485 91.1838 46.4809C92.2424 47.6133 92.7717 49.2135 92.7717 51.2814V64.8702C92.7717 66.9381 92.2424 68.5382 91.1838 69.6707C90.1253 70.8031 88.599 71.3693 86.605 71.3693ZM86.605 67.6766C88.0082 67.6766 88.7098 66.8273 88.7098 65.1287V51.0229C88.7098 49.3243 88.0082 48.475 86.605 48.475C85.2018 48.475 84.5002 49.3243 84.5002 51.0229V65.1287C84.5002 66.8273 85.2018 67.6766 86.605 67.6766ZM95.5186 45.1516H101.538C103.63 45.1516 105.156 45.6439 106.116 46.6286C107.077 47.5887 107.557 49.0781 107.557 51.0967V52.6846C107.557 55.3679 106.67 57.0665 104.898 57.7804V57.8542C105.883 58.1496 106.572 58.7528 106.966 59.6636C107.384 60.5745 107.594 61.793 107.594 63.3193V67.8613C107.594 68.5998 107.618 69.2029 107.667 69.6707C107.717 70.1138 107.84 70.5569 108.037 71H103.901C103.753 70.5815 103.655 70.1876 103.606 69.8184C103.556 69.4491 103.532 68.7844 103.532 67.8243V63.0978C103.532 61.9161 103.335 61.0914 102.941 60.6237C102.572 60.156 101.919 59.9221 100.984 59.9221H99.5805V71H95.5186V45.1516ZM101.058 56.2295C101.87 56.2295 102.473 56.0202 102.867 55.6017C103.285 55.1832 103.495 54.4816 103.495 53.4969V51.5029C103.495 50.5674 103.322 49.8905 102.978 49.472C102.658 49.0535 102.141 48.8442 101.427 48.8442H99.5805V56.2295H101.058ZM113.551 45.1516H119.053L123.262 71H119.2L118.462 65.8672V65.9411H113.846L113.107 71H109.341L113.551 45.1516ZM117.982 62.4331L116.172 49.6566H116.098L114.326 62.4331H117.982ZM130.884 71.3693C128.939 71.3693 127.45 70.8154 126.416 69.7076C125.407 68.5998 124.902 67.0366 124.902 65.0179V51.1336C124.902 49.115 125.407 47.5518 126.416 46.444C127.45 45.3362 128.939 44.7823 130.884 44.7823C132.829 44.7823 134.306 45.3362 135.315 46.444C136.349 47.5518 136.866 49.115 136.866 51.1336V53.8662H133.026V50.8752C133.026 49.275 132.349 48.475 130.995 48.475C129.641 48.475 128.964 49.275 128.964 50.8752V65.3133C128.964 66.8889 129.641 67.6766 130.995 67.6766C132.349 67.6766 133.026 66.8889 133.026 65.3133V61.3622H136.866V65.0179C136.866 67.0366 136.349 68.5998 135.315 69.7076C134.306 70.8154 132.829 71.3693 130.884 71.3693ZM139.297 45.1516H143.358V67.3074H150.042V71H139.297V45.1516ZM151.99 45.1516H163.068V48.8442H156.052V55.6756H161.628V59.3682H156.052V67.3074H163.068V71H151.99V45.1516Z" fill="white"/>
  <path d="M67.8551 41.2673C67.8551 59.8668 52.7771 74.9448 34.1775 74.9448C15.5779 74.9448 0.5 59.8668 0.5 41.2673C0.5 22.6677 15.5779 7.58972 34.1775 7.58972C52.7771 7.58972 67.8551 22.6677 67.8551 41.2673Z" fill="#0E78F9" stroke="#E9E9E9"/>
  <path d="M57.8931 41.1567C57.8931 53.9723 47.3214 64.3761 34.2624 64.3761C21.2033 64.3761 10.6317 53.9723 10.6317 41.1567C10.6317 28.341 21.2033 17.9373 34.2624 17.9373C47.3214 17.9373 57.8931 28.341 57.8931 41.1567Z" fill="#0E78F9" stroke="#E9E9E9"/>
  <path d="M45.3544 60.0478C34.7322 66.0664 21.1613 62.482 15.0429 52.0509C8.92769 41.625 12.5664 28.297 23.1815 22.2708C33.8004 16.2424 47.3688 19.8414 53.4874 30.2705C59.6027 40.6939 55.969 54.0242 45.3544 60.0478Z" fill="#0E78F9" stroke="#E9E9E9"/>
  <path d="M42.0535 47.0751L42.3514 46.6736C42.2926 46.63 42.2338 46.5863 42.1748 46.5425C40.6059 45.3783 38.9779 44.1701 37.3301 43.0939C37.4829 42.2445 37.6929 40.8643 37.7811 39.312C37.8742 37.6736 37.834 35.8095 37.4286 34.1669C38.0469 33.8182 38.6825 33.4548 39.3168 33.0922C39.62 32.9188 39.9229 32.7456 40.2236 32.5742L40.2237 32.5742L42.1974 31.4486C42.1977 31.4484 42.198 31.4482 42.1983 31.4481C42.6178 31.2109 42.9867 31.0037 43.3177 30.82C45.0667 31.3783 46.8858 32.5584 48.1533 33.4978L48.1536 33.498C48.9863 34.1142 49.6747 34.6918 50.1038 35.0694L50.1037 35.0695L50.1118 35.0764C50.2878 35.2247 50.4343 35.3554 50.5488 35.4593C50.8607 38.5056 50.7245 41.3836 50.5183 44.0755C50.1192 44.5609 49.3702 45.16 48.3655 45.7706L47.9411 46.0163C46.6297 46.7755 45.2182 47.346 43.7484 47.7112C43.4642 47.5036 43.1853 47.2952 42.9055 47.0862C42.7216 46.9488 42.5373 46.8112 42.3509 46.6732L42.0535 47.0751ZM42.0535 47.0751C42.236 47.2102 42.4185 47.3465 42.6016 47.4833C42.9443 47.7393 43.2894 47.997 43.6411 48.2514L36.8454 33.9213C37.8016 37.2248 37.0759 41.7806 36.7773 43.3315C38.507 44.4433 40.2195 45.7142 41.8818 46.9478L42.0535 47.0751ZM31.5066 22.2934C30.4566 21.8579 29.3793 21.605 28.3667 21.4661C32.2379 20.3548 36.3607 20.3622 40.2502 21.5096C40.1894 21.8922 40.1195 22.2803 40.0397 22.674C38.9948 22.4197 37.4687 22.1984 35.9668 22.0907C35.0719 22.0266 34.1717 22.0018 33.3717 22.0363C32.6732 22.0665 32.0194 22.1429 31.5066 22.2934ZM48.7348 47.3552C49.8436 46.7362 50.7623 46.0755 51.4005 45.4364C52.3533 46.2864 53.206 47.2429 53.9418 48.2871C52.4601 52.2862 49.7739 55.7287 46.2523 58.1385C46.2425 58.1401 46.2328 58.1418 46.2231 58.1435C45.554 58.2596 44.8939 58.3741 44.2556 58.527C43.0862 57.7284 41.9893 56.8287 40.9776 55.8383C41.608 54.9598 42.287 53.6588 42.8607 52.4276C43.444 51.1759 43.9429 49.9424 44.1934 49.205C45.7848 48.8008 47.3132 48.1785 48.7348 47.3552ZM26.7509 60.0215C26.6596 59.8912 26.5622 59.7542 26.4626 59.6149C28.0127 59.0865 29.6366 58.1364 31.2175 56.8345C32.183 57.0109 33.8583 57.1124 35.4912 57.119C36.3909 57.1226 37.2939 57.0975 38.0808 57.0377C38.7029 56.9904 39.2765 56.9199 39.7233 56.8167C40.7054 57.7886 41.7619 58.682 42.8832 59.4888C42.69 59.7393 42.511 60.0005 42.3471 60.2713C37.5242 62.2538 32.1413 62.3983 27.2188 60.6774L26.7522 60.0233C26.7518 60.0227 26.7513 60.0221 26.7509 60.0215ZM50.4341 34.6941C49.9966 34.309 49.2972 33.7222 48.451 33.096L51.002 35.1959C50.8774 35.0818 50.6845 34.9052 50.4341 34.6941ZM41.4946 23.4062C41.596 22.937 41.6846 22.4732 41.7616 22.016C44.3823 22.9885 46.7806 24.4834 48.8096 26.4122C50.8519 28.3536 52.4742 30.6909 53.5785 33.2792C52.8495 33.5202 52.138 33.8118 51.4494 34.1519C50.8861 33.6435 49.8931 32.7934 48.6771 31.9263C47.3319 30.9671 45.6868 29.9675 44.0322 29.3979C43.7714 27.7551 43.1199 25.1391 41.4946 23.4062ZM18.5034 54.32C17.9531 53.3817 16.2672 50.216 16.3877 47.0142C17.5726 46.1258 18.8023 45.2986 20.0719 44.536C20.1082 44.5154 20.1432 44.4957 20.1769 44.477C21.3803 45.6203 22.9959 46.5525 24.489 47.2598C25.8982 47.9273 27.2305 48.4093 28.0705 48.6875C28.1933 51.1695 28.849 53.5958 29.9927 55.8015C29.3154 56.342 28.5979 56.8303 27.8463 57.2621L27.8434 57.2638C27.0138 57.7478 26.1202 58.112 25.1892 58.3459C23.2174 57.6442 20.3164 56.0884 18.5995 54.4798C18.5983 54.4779 18.5971 54.4761 18.596 54.4742C18.5673 54.4279 18.5394 54.3829 18.5062 54.3249L18.5063 54.3248L18.5034 54.32ZM14.8215 46.9351C14.786 47.8169 14.8652 48.6851 15.0157 49.5113C14.3968 48.1171 13.9352 46.6568 13.6404 45.1579C13.9847 45.7793 14.3794 46.3738 14.8215 46.9351ZM20.2697 33.4597C18.8792 32.7049 17.6644 32.2723 16.6167 32.223C16.822 31.1734 17.1132 30.1421 17.4874 29.1395L17.4874 29.1395L17.4893 29.1342C17.5595 28.9396 17.6364 28.7432 17.7172 28.5434C19.3794 26.4577 21.428 24.7117 23.7512 23.4009L23.7589 23.3965L23.7664 23.3919C24.0407 23.2242 24.3167 23.0739 24.5996 22.9315C25.9629 22.8186 28.1069 22.8021 30.1878 23.4786C29.8217 24.0713 29.4293 24.8645 29.086 25.7029C28.6615 26.7393 28.2906 27.897 28.136 28.9009C26.6624 29.4022 25.2379 30.0385 23.8808 30.8016C22.5647 31.5249 21.3505 32.4188 20.2697 33.4597ZM27.9109 30.6478L27.9109 30.6478L27.9144 30.6465C28.2895 30.5012 28.6038 30.3947 28.827 30.3218C31.3351 31.3944 33.7337 32.9054 35.8414 34.2884C36.3477 36.0794 36.3025 38.3659 36.1613 40.0315C36.0889 40.8434 35.9882 41.6763 35.8493 42.5048L35.8489 42.5071C35.814 42.7209 35.7812 42.9023 35.7544 43.0449C35.129 43.4245 34.5214 43.8099 33.8952 44.2071C33.8204 44.2546 33.7452 44.3022 33.6697 44.3501L33.5855 44.4032C32.341 45.1884 31.0628 45.9949 29.5791 46.8359C29.4853 46.8883 29.3918 46.9407 29.2984 46.9929C29.1167 47.0947 28.936 47.1959 28.7568 47.295L28.5148 47.2162C28.5143 47.2161 28.5138 47.2159 28.5132 47.2157C27.6963 46.9447 26.2939 46.437 24.8456 45.724C23.446 45.0351 22.0424 44.1731 21.0755 43.1753C20.832 39.7573 20.8518 37.0281 21.1271 34.8396C22.1673 33.7817 23.3568 32.8812 24.6578 32.1668L24.6579 32.1668L24.6619 32.1645C25.7056 31.5787 26.7916 31.0717 27.9109 30.6478Z" fill="white" stroke="#E9E9E9"/>
  <g style="mix-blend-mode:multiply" opacity="0.5">
    <g style="mix-blend-mode:multiply" opacity="0.5">
      <path d="M45.3521 60.0473L45.3514 60.0478C34.732 66.0585 21.1713 62.4746 15.0423 52.0484C9.55771 42.6987 11.9292 31.0124 20.1257 24.3612C18.553 27.3683 17.6765 30.7026 17.5755 34.1157C17.4504 38.3475 18.5227 42.5286 20.6689 46.1779C26.8842 56.7717 40.4382 60.5998 51.3714 55.0524C49.6849 57.0598 47.6475 58.7535 45.3521 60.0473ZM52.3332 54.5362C52.3871 54.5058 52.4408 54.4752 52.4942 54.4444C50.6385 56.9071 48.2918 58.9643 45.5976 60.4829C34.7439 66.6263 20.8801 62.9664 14.611 52.3014L52.3332 54.5362Z" fill="url(#paint0_linear)" style="mix-blend-mode:multiply"/>
      <path d="M45.3521 60.0473L45.3514 60.0478C34.732 66.0585 21.1713 62.4746 15.0423 52.0484C9.55771 42.6987 11.9292 31.0124 20.1257 24.3612C18.553 27.3683 17.6765 30.7026 17.5755 34.1157C17.4504 38.3475 18.5227 42.5286 20.6689 46.1779C26.8842 56.7717 40.4382 60.5998 51.3714 55.0524C49.6849 57.0598 47.6475 58.7535 45.3521 60.0473ZM52.3332 54.5362C52.3871 54.5058 52.4408 54.4752 52.4942 54.4444C50.6385 56.9071 48.2918 58.9643 45.5976 60.4829C34.7439 66.6263 20.8801 62.9664 14.611 52.3014L52.3332 54.5362Z" stroke="#E9E9E9"/>
    </g>
  </g>
  <path d="M52.0331 24.2225C52.009 24.1974 51.9849 24.1724 51.9607 24.1474C51.8701 24.0539 51.7788 23.9611 51.6867 23.869C51.6855 23.8678 51.6843 23.8666 51.6831 23.8654L67.0275 32.025L66.5602 32.1503L66.5445 32.1545M52.0331 24.2225L51.6808 24.5745L51.5992 24.4928C54.5725 27.5611 56.6772 31.3588 57.7052 35.4967C57.6699 35.3543 57.6333 35.2121 57.5954 35.0703L57.4665 34.5876L57.9439 34.4597M52.0331 24.2225C54.8085 27.1117 56.8337 30.6269 57.9439 34.4597M52.0331 24.2225L52.0344 24.2212L58.3318 17.929C62.2356 21.9506 65.0381 26.8491 66.5445 32.1545M57.9439 34.4597C57.9903 34.6197 58.035 34.7802 58.0782 34.9413C58.117 35.0862 58.1545 35.2315 58.1907 35.3772C58.1546 35.2316 58.1172 35.0863 58.0785 34.9413L66.2067 32.7627C66.2067 32.7626 66.2067 32.7625 66.2066 32.7623L66.6775 32.6365C66.6343 32.4755 66.59 32.3148 66.5445 32.1545M57.9439 34.4597L57.9491 34.4583L66.5445 32.1545M66.5436 50.507C66.5892 50.3467 66.6335 50.186 66.6767 50.025L66.2066 49.8994C66.2067 49.8993 66.2067 49.8991 66.2068 49.8989L58.0789 47.718C58.066 47.7661 58.053 47.8141 58.0398 47.8621C58.0089 47.9748 57.9772 48.0873 57.9447 48.1996M66.5436 50.507L57.9489 48.2008L57.9447 48.1996M66.5436 50.507C65.5912 53.8603 64.1176 57.0632 62.16 59.9931C61.0248 61.692 59.7426 63.2757 58.3326 64.7283M66.5436 50.507L66.5601 50.5114L58.3326 64.7283M57.9447 48.1996C57.6916 49.0737 57.3895 49.936 57.0389 50.7823C55.8562 53.6374 54.1547 56.23 52.0357 58.4366M57.9447 48.1996L57.4666 48.0714L57.5648 47.7037C57.2976 48.6824 56.9681 49.6468 56.577 50.591C55.4195 53.3851 53.7548 55.9227 51.6819 58.0831L52.0344 58.4353L52.0357 58.4366M52.0357 58.4366L58.3326 64.7283M52.0357 58.4366C51.9203 58.5568 51.8036 58.6758 51.6857 58.7937L57.6357 64.7388C57.6358 64.7387 57.6359 64.7386 57.636 64.7386L57.9817 65.0844C58.0995 64.9666 58.2165 64.8479 58.3326 64.7283M40.1325 65.3096C40.2944 65.2697 40.4558 65.2282 40.6168 65.185M40.1325 65.3096L40.1321 65.3079L40.0033 64.8265C38.1215 65.2894 36.1812 65.5271 34.2229 65.5271C32.1977 65.5273 30.1851 65.2733 28.2317 64.7742L28.4406 64.83L28.3119 65.3098M40.1325 65.3096L42.4328 73.9067C37.6207 75.1189 32.579 75.2551 27.6721 74.2792C27.1127 74.1679 26.5571 74.0426 26.0059 73.9036M40.1325 65.3096C38.2088 65.7837 36.2251 66.0271 34.2229 66.0271C32.2263 66.0273 30.2417 65.7854 28.3119 65.3098M40.6168 65.185L26.0003 73.9247L26.0059 73.9036M40.6168 65.185L42.7913 73.3121L40.6168 65.185ZM28.3119 65.3098C28.2341 65.2907 28.1564 65.2711 28.0788 65.2512C27.995 65.2297 27.9112 65.2077 27.8276 65.1853L27.6989 65.6669C27.6988 65.6669 27.6986 65.6669 27.6984 65.6668L25.6469 73.3121L25.522 73.7776C25.6829 73.8208 25.8443 73.8628 26.0059 73.9036M28.3119 65.3098L28.3109 65.3135L26.0059 73.9036M10.1145 64.7243C10.2305 64.8438 10.3475 64.9626 10.4654 65.0805L16.7553 58.7906C16.6793 58.7145 16.6038 58.638 16.5288 58.561C16.4875 58.5186 16.4464 58.476 16.4054 58.4333M10.1145 64.7243L16.4033 58.4355L16.4054 58.4333M10.1145 64.7243C6.23699 60.7283 3.42144 55.8396 1.90676 50.5051M10.1145 64.7243L10.1001 64.7386L1.90676 50.5051M16.4054 58.4333C14.2779 56.2168 12.5816 53.6216 11.4051 50.7802C11.0554 49.9358 10.7536 49.0743 10.5005 48.1998M16.4054 58.4333L16.7568 58.082L16.8892 58.2144C14.747 56.015 13.0423 53.4274 11.867 50.5889C11.4899 49.678 11.1695 48.7468 10.907 47.8007L10.9795 48.0713L10.5005 48.1998M10.5005 48.1998L10.4968 48.2008L1.90676 50.5051M10.5005 48.1998C10.4755 48.1134 10.4509 48.0268 10.4268 47.9401C10.4063 47.8662 10.3861 47.7922 10.3663 47.7181L2.23635 49.899C2.23636 49.899 2.23638 49.8991 2.23639 49.8991L1.77377 50.0231C1.81692 50.1841 1.86125 50.3448 1.90676 50.5051M1.64796 49.5391L2.11061 49.415C0.774569 44.1084 0.774581 38.5532 2.11065 33.2466L1.64796 49.5391ZM1.64796 49.5391C1.50998 48.9916 1.38558 48.4398 1.27502 47.8842C0.298684 42.977 0.434547 37.9348 1.64671 33.1223M34.2229 7.73193C37.0148 7.73193 39.7709 8.07942 42.4333 8.75045L40.1321 17.3486L40.1312 17.3518C39.7707 17.263 39.4078 17.1822 39.0425 17.1095C35.4773 16.4001 31.8152 16.4893 28.315 17.3517L26.0082 8.75235C28.6799 8.0784 31.4383 7.73215 34.2229 7.73193ZM24.771 64.1477C25.1017 64.2846 25.435 64.4142 25.7707 64.5365C24.4214 64.046 23.1163 63.4379 21.8706 62.7187C21.6023 62.5631 21.337 62.4027 21.0749 62.2374C21.3373 62.4024 21.6028 62.5625 21.8713 62.7175C22.8036 63.2559 23.7721 63.7339 24.771 64.1477Z" fill="white" stroke="#E9E9E9"/>
  <defs>
    <linearGradient id="paint0_linear" x1="32.4019" y1="22.5277" x2="32.4019" y2="63.459" gradientUnits="userSpaceOnUse">
      <stop stop-color="white" stop-opacity="0"/>
      <stop offset="1" stop-color="#3D3D3D"/>
    </linearGradient>
  </defs>
</svg>
