<svg xmlns="http://www.w3.org/2000/svg" viewBox="0 0 32 32"><path fill="none" d="M0 0h32v32H0z"/><path d="M16 1C8.832 1 3 6.587 3 13.455 3 23.129 8.832 31 16 31s13-7.87 13-17.545C29 6.587 23.169 1 16 1zm4.58 24.73a38.932 38.932 0 01-9.16 0 1 1 0 01.251-1.984 37.52 37.52 0 008.657 0 1 1 0 01.252 1.984zm3.392-6.151a1 1 0 01-.676.632A29.311 29.311 0 0116 21a29.311 29.311 0 01-7.295-.79 1 1 0 01-.677-.632 16.53 16.53 0 01-.847-7.809 1 1 0 011.344-.719A23.608 23.608 0 0016 12a23.608 23.608 0 007.475-.95 1 1 0 011.344.72 16.531 16.531 0 01-.847 7.808z" fill="currentColor"/></g></svg>