<svg xmlns="http://www.w3.org/2000/svg" viewBox="0 0 32 32"><path fill="none" d="M0 0h32v32H0z"/><path d="M7.552 14.475c-.022-.01-.045-.016-.067-.028l-5.634-3.381a14.891 14.891 0 003.647 15.626l4.422-4.929zM23.827 12.338l5.46-3.276A15.005 15.005 0 0017 1.051v6.326zM11.231 23.564a.984.984 0 01-.21-.034l-3.999 4.458a14.893 14.893 0 0017.678.208l-4.155-4.633zM15 7.377V1.051A15.002 15.002 0 002.643 9.209L8.03 12.44zM16 9.123l-6.54 4.752 2.498 7.688h8.084l2.498-7.688L16 9.123zM31 16a14.895 14.895 0 00-.908-5.09l-5.572 3.344-2.563 7.89 4.289 4.781A14.945 14.945 0 0031 16z" fill="currentColor"/></g></svg>